<?xml version="1.0" encoding="UTF-8" standalone="no"?>
<svg width="58px" height="58px" viewBox="0 0 58 58" version="1.1" xmlns="http://www.w3.org/2000/svg" xmlns:xlink="http://www.w3.org/1999/xlink">
    <!-- Generator: Sketch 41.2 (35397) - http://www.bohemiancoding.com/sketch -->
    <title>Done 2</title>
    <desc>Created with Sketch.</desc>
    <defs></defs>
    <g id="Page-1" stroke="none" stroke-width="1" fill="none" fill-rule="evenodd">
        <g id="Done-2" fill="#000000">
            <path d="M29.2,57.3 C13.5,57.3 0.7,44.5 0.7,28.9 C0.7,13.3 13.5,0.5 29.2,0.5 C44.9,0.5 57.7,13.3 57.7,28.9 C57.7,44.5 44.9,57.3 29.2,57.3 Z M29.2,3.4 C15.1,3.4 3.7,14.8 3.7,28.8 C3.7,42.8 15.1,54.2 29.2,54.2 C43.3,54.2 54.7,42.8 54.7,28.8 C54.7,14.8 43.3,3.4 29.2,3.4 Z" id="Shape"></path>
            <g id="Group" transform="translate(16.000000, 17.000000)">
                <polygon id="Shape" points="11.6 22.5 0.9 12.7 2.9 10.5 11.1 18 23 0.7 25.5 2.4"></polygon>
            </g>
        </g>
    </g>
</svg>